<svg xmlns="http://www.w3.org/2000/svg" width="124" height="51" viewBox="0 0 124 51" fill="none"><path fill-rule="evenodd" clip-rule="evenodd" d="M60.8628 28.4462C55.6451 28.4462 51.4153 32.6172 51.4153 37.7617C51.4153 42.9064 55.6451 47.0771 60.8628 47.0771C66.0805 47.0771 70.3103 42.9064 70.3103 37.7617C70.3103 32.6172 66.0805 28.4462 60.8628 28.4462ZM60.8628 25.3411C67.7369 25.3411 73.325 30.7704 73.4571 37.5171L73.4594 37.7617V50.1823H70.3102L70.311 45.9765C68.0028 48.5555 64.6254 50.1823 60.8628 50.1823C53.9058 50.1823 48.2661 44.6214 48.2661 37.7617C48.2661 30.9019 53.9058 25.3411 60.8628 25.3411Z" fill="#1D1D1F"></path><path fill-rule="evenodd" clip-rule="evenodd" d="M89.2053 12.9209V25.3415H98.6528V28.4467H89.2053V37.7621C89.2053 42.9069 93.4351 47.0776 98.6528 47.0776V50.1827C91.6958 50.1827 86.0562 44.6219 86.0562 37.7621V12.9209H89.2053Z" fill="#1D1D1F"></path><path fill-rule="evenodd" clip-rule="evenodd" d="M111.251 37.5171C111.383 30.7704 116.972 25.3411 123.846 25.3411V28.4462C118.628 28.4462 114.398 32.6172 114.398 37.7617V50.1823H111.249V37.7617L111.251 37.5171Z" fill="#1D1D1F"></path><path d="M81.3328 0.5H78.1836V50.1824H81.3328V0.5Z" fill="#1D1D1F"></path><path d="M106.526 25.3411H103.376V50.1823H106.526V25.3411Z" fill="#1D1D1F"></path><path d="M104.951 22.2358C105.821 22.2358 106.526 21.5406 106.526 20.6832C106.526 19.8257 105.821 19.1306 104.951 19.1306C104.081 19.1306 103.376 19.8257 103.376 20.6832C103.376 21.5406 104.081 22.2358 104.951 22.2358Z" fill="#1D1D1F"></path><path fill-rule="evenodd" clip-rule="evenodd" d="M0 50.5L18.9723 13.0857L37.9446 50.5H22.5296V47.3822H32.8283L18.9723 20.0572L5.11631 47.3822H15.415V50.5H0Z" fill="#1D1D1F"></path></svg>